<svg xmlns="http://www.w3.org/2000/svg" width="175" height="39" viewBox="0 0 175 39">
  <defs>
    <style>
      .cls-1 {
        fill: #fff;
        fill-rule: evenodd;
      }
    </style>
  </defs>
  <path id="Фигура_14" data-name="Фигура 14" class="cls-1" d="M565.455,318.668H559.57L556.5,332.306h-4.714l3.074-13.638h-7.024l-4.862,3.5,6.187,10.137h-5.373l-4.547-7.449-1.675,1.206-1.407,6.243h-4.714l3.74-16.592h4.713l-1.327,5.891,8.181-5.891h19.373Zm-50.344-2.954H511.74L516.635,294h-6.022l-28.026,29.991,1.866-8.277H479.74L476,332.306h3.93l8.551-9.151-2.063,9.151h4.713l3.561-15.8,4.247-4.544h8.933l-0.845,3.75h-4.789c-8.957,0-10.511,11.271-1.7,11.271h3.944L503.13,333h4.713l1.356-6.015h4.849C521.475,326.985,525.114,315.714,515.111,315.714Zm-0.684,2.836c5.808,0,3.756,5.6-1.144,5.6h-3.445l1.262-5.6h3.327Zm-11.767,0c-4.46,0-5.278,5.6-1.39,5.6h3.855l1.262-5.6H502.66Zm20.31-13.707h-2.454l1.2-5.317h3.574C529.012,299.526,528.91,304.843,522.97,304.843Zm2.865-8.272h-7.8L514.2,313.587h4.341l1.252-5.554h3.924C533.058,308.276,534.911,296.572,525.835,296.571Zm51.5,35.735,3.74-16.592h4.713l-3.74,16.592h-4.713ZM567.3,315.714h4.713l-1.065,4.727h1.233c9.284,0,6.235,11.866-3.7,11.866h-4.925Zm4.521,7.8H570.26l-1.2,5.318h0.907C574.143,328.831,575.337,323.513,571.826,323.513ZM637.2,304.37h-1.724l-1.226,5.436h1.633C639.437,309.806,641.641,304.37,637.2,304.37Zm-3.02,9.217h-5.123l3.836-17.016h4.341l-1.092,4.845h2.112c8.518,0,5.654,12.257-4.074,12.171h0ZM508.531,309.04l2.181-9.675-9.041,9.675h6.86ZM524.218,326h2.692l0.856-3.8Zm-2.65,2.836-3.247,3.475h-4.608l15.51-16.592h4.718l-3.74,16.592h-4.713l0.783-3.475h-4.7Zm39.559-25.876-2.4,10.633h-4.342l3.387-15.023-12.6,15.023h-4.4l5.617-6.7-3.422-7.366h-5.134l-3.169,14.062h-4.341l3.836-17.016h12.1l3.131,6.742,5.656-6.742h9.692l1.131,11.236,7.149-11.236h5.543l-3.835,17.016H570.39l2.3-10.212-6.5,10.212-4,0Zm22.176,0.116h8.883l-0.72,3.19h-8.882l-0.8,3.545h10.835l-0.852,3.781H576.591l3.836-17.016H595.6l-0.666,2.955H584.1Zm16.5,0h7.442l1.465-6.5h4.341l-3.836,17.016H604.87l1.651-7.326H599.08l-1.652,7.326h-4.341l3.836-17.016h4.341Zm14.568-6.5h17.205l-0.666,2.955h-6.37l-3.17,14.061h-4.341l3.17-14.061H613.7Zm28.456,17.016,3.836-17.016H651l-3.835,17.016h-4.342ZM508.531,309.04l2.181-9.675-9.041,9.675h6.86Zm-5.871,9.51c-4.46,0-5.278,5.6-1.39,5.6h3.855l1.262-5.6H502.66Z" transform="translate(-476 -294)"/>
</svg>
