<svg xmlns="http://www.w3.org/2000/svg" width="170" height="44" viewBox="0 0 170 44">
  <defs>
    <style>
      .cls-1 {
        fill: #fff;
        fill-rule: evenodd;
      }
    </style>
  </defs>
  <path id="Фигура_13" data-name="Фигура 13" class="cls-1" d="M174.779,321.638V311.214a15.472,15.472,0,0,0,2.662-.156l5.94,10.58h7.676v-1.093l-7.329-12.025c5.362-3.475,5.208-8.628,5.208-14.212h-7.1c0,5.115.348,10.347-6.557,10.347h-0.5V294.308h-7.02v27.33h7.02Zm23.51,0h7.445l12.807-26.275v-1.055h-7.484l-4.628,10.073h-0.193l-5.092-10.073h-7.715v1.055l9.1,16.71-4.244,8.823v0.742Zm32.5,0h-6.9v-27.33h11.88c12.923,0.04,12.923,20.341,0,20.341h-4.976v6.989Zm4.938-13.274c3.78,0,4.012-7.77,0-7.809-1.62-.039-3.356,0-4.938,0v7.809h4.938Zm14.908-.391c0.039,9.292,6.982,13.977,13.848,13.938,5.748,0,11.8-3.045,12.807-10.775H270.5c-0.733,2.928-3.086,4.411-6.018,4.411-4.089-.039-6.712-3.552-6.712-7.574,0-4.529,2.662-7.613,6.712-7.613,2.893,0,4.938,1.249,5.9,4.021h6.789c-1.041-7.3-7.1-10.385-12.691-10.385C257.615,294,250.672,298.681,250.633,307.973Zm49.663,0.234v13.431h7.137V294.191h-2.508L291.27,307.7V294.308h-7.059v27.369h2.469Zm35.584-5.5a6.564,6.564,0,0,1-2.121,4.725A5.929,5.929,0,0,1,337,313.01c-0.039,4.763-2.893,8.628-8.409,8.628H315.937v-27.33h11.534A8.331,8.331,0,0,1,335.88,302.7Zm-7.792,8.082h-5.477v4.646h5.516C330.9,315.43,330.866,310.784,328.088,310.784Zm-1.157-10.229h-4.32v4.412h4.359C329.708,304.967,329.708,300.555,326.931,300.555ZM173.753,338H172.3v-1.919h-3.713v1.913h-1.5L167,334.773h0.522a2.163,2.163,0,0,0,.545-1.019,9.381,9.381,0,0,0,.28-1.839l0.221-3.64h4.511v6.5h0.814Zm-4.527-3.227H171.5v-5.184h-1.423l-0.129,2.149A7.651,7.651,0,0,1,169.226,334.773Zm9.9-2.07H176.66v2.07h2.921v1.308h-4.506v-7.806h4.5v1.314h-2.91v1.844h2.468v1.27Zm7.234-4.428v7.806h-1.59v-6.492h-1.455l-0.108,2.766a9.13,9.13,0,0,1-.31,2.168,2.317,2.317,0,0,1-.716,1.177,2.011,2.011,0,0,1-1.27.381h-0.388v-1.308l0.184-.016a0.873,0.873,0,0,0,.714-0.646,7.558,7.558,0,0,0,.272-2.078l0.1-3.758h4.565Zm7.169,4.605a3.624,3.624,0,0,1-.746,2.439,2.587,2.587,0,0,1-2.072.869,2.615,2.615,0,0,1-2.075-.861,3.571,3.571,0,0,1-.765-2.409v-1.335a3.819,3.819,0,0,1,.749-2.511,2.844,2.844,0,0,1,4.144-.016,3.768,3.768,0,0,1,.765,2.49v1.334Zm-1.589-1.308a3.19,3.19,0,0,0-.3-1.57,1.118,1.118,0,0,0-1.87-.019,3.018,3.018,0,0,0-.313,1.509v1.388a2.886,2.886,0,0,0,.307,1.509,1.043,1.043,0,0,0,.949.485,1.016,1.016,0,0,0,.921-0.474,2.828,2.828,0,0,0,.308-1.471v-1.357Zm3.094,4.509v-7.806h2.426a2.806,2.806,0,0,1,1.867.545,1.976,1.976,0,0,1,.639,1.594,1.915,1.915,0,0,1-.264,1.024,1.553,1.553,0,0,1-.723.627,1.373,1.373,0,0,1,.814.6,2.049,2.049,0,0,1,.286,1.117,2.219,2.219,0,0,1-.628,1.716,2.592,2.592,0,0,1-1.819.579h-2.6Zm1.585-3.394v2.086h1.013a0.8,0.8,0,0,0,.647-0.263,1.128,1.128,0,0,0,.221-0.745q0-1.051-.766-1.078h-1.115Zm0-1.147h0.825a0.836,0.836,0,0,0,.932-0.959,1.1,1.1,0,0,0-.216-0.762,0.923,0.923,0,0,0-.7-0.23h-0.841v1.951Zm6.582-.461h0.937a2.635,2.635,0,0,1,1.9.673,2.369,2.369,0,0,1,.706,1.8,2.463,2.463,0,0,1-.69,1.815,2.535,2.535,0,0,1-1.827.716h-2.614v-7.806h1.59v2.8Zm5.535,5h-1.585v-7.806h1.585v7.806Zm-5.535-3.694v2.386h0.959a0.873,0.873,0,0,0,.73-0.346,1.41,1.41,0,0,0,.267-0.887,1.268,1.268,0,0,0-.261-0.829,0.9,0.9,0,0,0-.725-0.324H203.2ZM214.43,332.7h-2.468v2.07h2.921v1.308h-4.506v-7.806h4.5v1.314h-2.91v1.844h2.468v1.27Zm10.146,3.378H223v-3.34h-2.339v3.34h-1.585v-7.806h1.585v3.158H223v-3.158h1.579v7.806Zm7.164-3.2a3.624,3.624,0,0,1-.747,2.439,2.585,2.585,0,0,1-2.072.869,2.616,2.616,0,0,1-2.075-.861,3.571,3.571,0,0,1-.765-2.409v-1.335a3.824,3.824,0,0,1,.749-2.511,2.845,2.845,0,0,1,4.145-.016,3.774,3.774,0,0,1,.765,2.49v1.334Zm-1.59-1.308a3.19,3.19,0,0,0-.3-1.57,1.118,1.118,0,0,0-1.87-.019,3.04,3.04,0,0,0-.313,1.509v1.388a2.884,2.884,0,0,0,.308,1.509,1.041,1.041,0,0,0,.948.485,1.018,1.018,0,0,0,.922-0.474,2.839,2.839,0,0,0,.307-1.471v-1.357Zm3.095,4.509v-7.806h2.425a2.8,2.8,0,0,1,1.867.545,1.976,1.976,0,0,1,.639,1.594,1.915,1.915,0,0,1-.264,1.024,1.555,1.555,0,0,1-.722.627,1.379,1.379,0,0,1,.814.6,2.058,2.058,0,0,1,.285,1.117,2.219,2.219,0,0,1-.628,1.716,2.588,2.588,0,0,1-1.819.579h-2.6Zm1.584-3.394v2.086h1.013a0.8,0.8,0,0,0,.647-0.263,1.123,1.123,0,0,0,.221-0.745q0-1.051-.765-1.078h-1.116Zm0-1.147h0.825a0.836,0.836,0,0,0,.932-0.959,1.1,1.1,0,0,0-.215-0.762,0.927,0.927,0,0,0-.7-0.23h-0.841v1.951Zm10.5,1.34a3.629,3.629,0,0,1-.746,2.439,2.588,2.588,0,0,1-2.072.869,2.615,2.615,0,0,1-2.075-.861,3.576,3.576,0,0,1-.766-2.409v-1.335a3.819,3.819,0,0,1,.75-2.511,2.844,2.844,0,0,1,4.144-.016,3.768,3.768,0,0,1,.765,2.49v1.334Zm-1.59-1.308a3.191,3.191,0,0,0-.3-1.57,1.119,1.119,0,0,0-1.871-.019,3.03,3.03,0,0,0-.312,1.509v1.388a2.886,2.886,0,0,0,.307,1.509,1.043,1.043,0,0,0,.949.485,1.016,1.016,0,0,0,.921-0.474,2.829,2.829,0,0,0,.307-1.471v-1.357Zm8.415,1.909a2.911,2.911,0,0,1-.755,2.021,2.674,2.674,0,0,1-1.962.686,2.478,2.478,0,0,1-2.039-.871,3.844,3.844,0,0,1-.709-2.485v-1.313a3.748,3.748,0,0,1,.733-2.48,2.91,2.91,0,0,1,3.985-.158,3.232,3.232,0,0,1,.757,2.048h-1.589a2.1,2.1,0,0,0-.256-1.139,1.015,1.015,0,0,0-.86-0.314,0.963,0.963,0,0,0-.9.443,3.064,3.064,0,0,0-.28,1.455v1.474a3.393,3.393,0,0,0,.261,1.6,0.962,0.962,0,0,0,.9.434,1.042,1.042,0,0,0,.863-0.3,1.982,1.982,0,0,0,.269-1.1h1.585Zm6.269-3.892h-1.94v6.492h-1.59v-6.492h-1.908v-1.314h5.438v1.314Zm5.121-1.314h1.585v7.806h-1.585v-5.168l-2.312,5.168h-1.59v-7.806h1.59v5.173Zm8.41,4.621h-0.689v3.185H269.68v-7.806h1.585v3.12H271.8l1.364-3.12h1.929l-1.919,3.635,2.135,4.171H273.42Zm8.054,1.587h-2.162l-0.42,1.6H275.75l2.452-7.806h1.45l2.468,7.806h-1.692Zm-1.817-1.313h1.466l-0.733-2.782Zm8.172-2.745a0.966,0.966,0,0,0-.24-0.686,0.842,0.842,0,0,0-.649-0.257,0.764,0.764,0,0,0-.59.249,0.939,0.939,0,0,0-.229.662H283.07a2.106,2.106,0,0,1,1.186-1.941,2.685,2.685,0,0,1,1.218-.278,2.656,2.656,0,0,1,1.824.581,2.076,2.076,0,0,1,.655,1.638,1.834,1.834,0,0,1-.272.978,1.953,1.953,0,0,1-.747.7,1.752,1.752,0,0,1,.83.683,2.35,2.35,0,0,1-.415,2.812,2.748,2.748,0,0,1-1.875.616,2.96,2.96,0,0,1-1.286-.273,2.094,2.094,0,0,1-.894-0.783,2.222,2.222,0,0,1-.321-1.211h1.59a0.993,0.993,0,0,0,.253.686,0.842,0.842,0,0,0,.658.284,0.95,0.95,0,0,0,.722-0.284,1.021,1.021,0,0,0,.27-0.734,1.308,1.308,0,0,0-.232-0.869,0.852,0.852,0,0,0-.674-0.263h-0.8v-1.27h0.808A0.832,0.832,0,0,0,286.363,330.425Zm6.948,4.058H291.15l-0.42,1.6h-1.676l2.452-7.806h1.45l2.468,7.806h-1.692ZM291.5,333.17h1.466l-0.733-2.782Zm7.487-2.214,1.057-2.681h1.816l-1.843,3.871,1.886,3.935H300.06l-1.078-2.729-1.072,2.729h-1.838l1.886-3.935-1.848-3.871h1.816Zm9.272,2.525a2.911,2.911,0,0,1-.755,2.021,2.674,2.674,0,0,1-1.962.686,2.481,2.481,0,0,1-2.04-.871,3.849,3.849,0,0,1-.708-2.485v-1.313a3.748,3.748,0,0,1,.733-2.48,2.91,2.91,0,0,1,3.985-.158,3.232,3.232,0,0,1,.757,2.048h-1.589a2.091,2.091,0,0,0-.257-1.139,1.011,1.011,0,0,0-.859-0.314,0.963,0.963,0,0,0-.9.443,3.064,3.064,0,0,0-.28,1.455v1.474a3.393,3.393,0,0,0,.261,1.6,0.962,0.962,0,0,0,.9.434,1.042,1.042,0,0,0,.863-0.3,1.982,1.982,0,0,0,.269-1.1h1.585Zm6.269-3.892h-1.94v6.492h-1.59v-6.492h-1.908v-1.314h5.438v1.314Zm4.377,4.894h-2.161l-0.42,1.6h-1.676l2.452-7.806h1.45l2.468,7.806h-1.692Zm-1.816-1.313h1.466l-0.733-2.782Zm10.532,2.911h-1.579v-3.34H323.7v3.34h-1.584v-7.806H323.7v3.158h2.339v-3.158h1.579v7.806Zm5.483-1.6h-2.161l-0.421,1.6h-1.676l2.452-7.806h1.45l2.468,7.806h-1.692Zm-1.816-1.313h1.465l-0.732-2.782Z" transform="translate(-167 -294)"/>
</svg>
