<svg xmlns="http://www.w3.org/2000/svg" width="18" height="22" viewBox="0 0 18 22">
  <defs>
    <style>
      .cls-1 {
        fill: #fff;
        fill-rule: evenodd;
      }
    </style>
  </defs>
  <path id="Фигура_2" data-name="Фигура 2" class="cls-1" d="M1056.06,41.666a1.094,1.094,0,0,1-1.09,1.091,1.11,1.11,0,0,1-1.1-1.095,1.1,1.1,0,0,1,2.19,0h0Zm2.76,5.049a12.378,12.378,0,0,1,.71,4.813,6.875,6.875,0,0,0,1.7,4.288l-12.48-.017a6.847,6.847,0,0,0,1.68-4.284,12.354,12.354,0,0,1,.69-4.811,4.3,4.3,0,0,1,7.7.011h0ZM1054.99,59.4a2.594,2.594,0,0,1-2.52-2.007l5.05,0.007a2.591,2.591,0,0,1-2.53,2h0Zm-0.03-20.418a2.675,2.675,0,0,0-2.68,2.674,2.7,2.7,0,0,0,.42,1.434,4.914,4.914,0,0,0-1.16.6,5.418,5.418,0,0,0-1.88,2.373,13.85,13.85,0,0,0-.83,5.446c0,2.575-2.49,4.423-2.51,4.437a0.8,0.8,0,0,0,.47,1.446l4.04,0.006a4.2,4.2,0,0,0,8.31.011l4.05,0.006a0.786,0.786,0,0,0,.75-0.551,0.8,0.8,0,0,0-.29-0.893,7.481,7.481,0,0,1-1.27-1.26,5.107,5.107,0,0,1-1.25-3.184,14.076,14.076,0,0,0-.85-5.449,5.49,5.49,0,0,0-1.88-2.377,5.162,5.162,0,0,0-1.17-.6,2.688,2.688,0,0,0-2.27-4.115h0Zm0,0" transform="translate(-1046 -39)"/>
</svg>
