<svg xmlns="http://www.w3.org/2000/svg" width="22" height="22" viewBox="0 0 22 22">
  <defs>
    <style>
      .cls-1 {
        fill: #fff;
        fill-rule: evenodd;
      }
    </style>
  </defs>
  <path id="Фигура_12" data-name="Фигура 12" class="cls-1" d="M1294.47,151h-18.94a1.536,1.536,0,0,0-1.53,1.534v18.932a1.536,1.536,0,0,0,1.53,1.534h18.94a1.536,1.536,0,0,0,1.53-1.534V152.534A1.536,1.536,0,0,0,1294.47,151Zm0.11,20.466a0.115,0.115,0,0,1-.11.118h-18.94a0.115,0.115,0,0,1-.11-0.118V152.534a0.115,0.115,0,0,1,.11-0.118h18.94a0.115,0.115,0,0,1,.11.118v18.932h0Zm-15.24-12.13h-0.79a1.452,1.452,0,0,0-1.45,1.452v1.579a1.452,1.452,0,0,0,1.45,1.453h0.79a3.743,3.743,0,0,1,3.74,3.735v0.789a1.452,1.452,0,0,0,1.45,1.453h1.58a1.452,1.452,0,0,0,1.45-1.453v-0.789A8.23,8.23,0,0,0,1279.34,159.336Zm6.8,9.008a0.032,0.032,0,0,1-.03.037h-1.58a0.04,0.04,0,0,1-.04-0.037v-0.789a5.156,5.156,0,0,0-5.15-5.151h-0.79a0.032,0.032,0,0,1-.03-0.037v-1.579a0.031,0.031,0,0,1,.03-0.036h0.79a6.809,6.809,0,0,1,6.8,6.8v0.789Zm-6.8-14.52h-0.79a1.452,1.452,0,0,0-1.45,1.453v1.579a1.453,1.453,0,0,0,1.45,1.453h0.79a9.258,9.258,0,0,1,9.25,9.246v0.789a1.452,1.452,0,0,0,1.45,1.453h1.58a1.452,1.452,0,0,0,1.45-1.453v-0.789A13.727,13.727,0,0,0,1279.34,153.824Zm12.32,14.52a0.04,0.04,0,0,1-.04.037h-1.58a0.04,0.04,0,0,1-.04-0.037v-0.789a10.672,10.672,0,0,0-10.66-10.663h-0.79a0.031,0.031,0,0,1-.03-0.036v-1.579a0.032,0.032,0,0,1,.03-0.037h0.79a12.32,12.32,0,0,1,12.32,12.315v0.789h0Zm-12.15-3.44a2.651,2.651,0,1,0,2.65,2.651A2.654,2.654,0,0,0,1279.51,164.9Zm0,3.885a1.234,1.234,0,1,1,1.23-1.234A1.241,1.241,0,0,1,1279.51,168.789Z" transform="translate(-1274 -151)"/>
</svg>
