<svg xmlns="http://www.w3.org/2000/svg" width="19.969" height="10" viewBox="0 0 19.969 10">
  <defs>
    <style>
      .cls-1 {
        fill: #fff;
        fill-rule: evenodd;
      }
    </style>
  </defs>
  <path id="Фигура_16" data-name="Фигура 16" class="cls-1" d="M172.882,414.617A12.2,12.2,0,0,0,163,410c-4.893,0-8.522,2.591-9.882,4.617a0.682,0.682,0,0,0,0,.766A12.2,12.2,0,0,0,163,420c4.894,0,8.523-2.591,9.883-4.617a0.682,0.682,0,0,0,0-.766h0Zm-14.45,3.036A10.294,10.294,0,0,1,154.747,415a10.277,10.277,0,0,1,3.685-2.653,4.688,4.688,0,0,0,0,5.306h0Zm4.567,0.9A3.561,3.561,0,1,1,166.828,415,3.7,3.7,0,0,1,163,418.551h0Zm4.568-.9a4.688,4.688,0,0,0,0-5.306A10.281,10.281,0,0,1,171.251,415a10.282,10.282,0,0,1-3.684,2.653h0Zm-3.252-3.361" transform="translate(-153.031 -410)"/>
</svg>
