<svg xmlns="http://www.w3.org/2000/svg" width="40" height="39" viewBox="0 0 40 39">
  <defs>
    <style>
      .cls-1 {
        fill: #fff;
        fill-rule: evenodd;
      }
    </style>
  </defs>
  <path id="Фигура_13" data-name="Фигура 13" class="cls-1" d="M309.72,486.037v-0.708a7.165,7.165,0,0,0,.567-0.524,10.618,10.618,0,0,0,2.62-5.87,5.075,5.075,0,0,0,3.286-1.987c1.1-1.579,1.2-3.852.28-6.7a0.772,0.772,0,0,0-.3-0.4l-0.416-.285a10.559,10.559,0,0,0-2.453-7.033c-2.037-2.334-5.164-3.513-9.305-3.528h0c-4.134,0-7.268,1.194-9.3,3.5a10.554,10.554,0,0,0-2.453,7.033l-0.417.285a0.765,0.765,0,0,0-.3.4c-0.917,2.866-.818,5.123.28,6.7a5.086,5.086,0,0,0,3.285,2.01,10.628,10.628,0,0,0,2.627,5.878q0.271,0.276.568,0.524v0.708c-2.9.57-14.475,3.336-14.278,11.193a0.764,0.764,0,0,0,.757.77h38.482a0.764,0.764,0,0,0,.757-0.77C324.2,489.373,312.619,486.607,309.72,486.037Zm-16.656-10.014c-0.757-1.124-.825-2.827-0.151-5.076l0.552-.377a0.774,0.774,0,0,0,.333-0.717,9.209,9.209,0,0,1,2.06-6.339c1.711-1.972,4.459-2.958,8.138-2.973s6.428,1,8.169,2.973a9.2,9.2,0,0,1,2.059,6.339,0.778,0.778,0,0,0,.333.717l0.553,0.377c0.674,2.242.628,3.952-.151,5.076a3.3,3.3,0,0,1-1.613,1.194,5.189,5.189,0,0,0,1.234-3.851,3.622,3.622,0,0,0-1.219-2.157c-0.325-7.7-5.632-8.566-7.919-8.566a9.734,9.734,0,0,1-2.892,0c-2.271,0-7.571.848-7.919,8.566a3.624,3.624,0,0,0-1.234,2.149,5.183,5.183,0,0,0,1.234,3.852,3.293,3.293,0,0,1-1.6-1.194Zm18.791-5.13a15.38,15.38,0,0,1-9.047-2.311,0.749,0.749,0,0,0-.985.1c-1.514,1.656-4.277,2.041-5.61,2.126,0.409-5.446,3.649-6.633,6.375-6.633a7.21,7.21,0,0,1,1.295.108,0.732,0.732,0,0,0,.3,0,7.21,7.21,0,0,1,1.3-.108c2.7,0,5.958,1.217,6.337,6.71Zm-15.346,6.471a0.778,0.778,0,0,0-.19-0.516,4.381,4.381,0,0,1-1.385-3.22,2.052,2.052,0,0,1,.689-1.3c1,0,4.542-.193,6.814-2.188a16.831,16.831,0,0,0,8.4,2.311,9.908,9.908,0,0,0,1.56-.084,2.041,2.041,0,0,1,.681,1.263,4.4,4.4,0,0,1-1.385,3.22,0.778,0.778,0,0,0-.19.516v0.4l-4.406,2.4a2.154,2.154,0,0,0-3.082.085,2.247,2.247,0,0,0,.084,3.137,2.155,2.155,0,0,0,3.083-.086,2.244,2.244,0,0,0,.6-1.526c0-.07,0-0.139,0-0.208l3.474-1.895a8.525,8.525,0,0,1-2.028,4.067,6.68,6.68,0,0,1-5.02,1.91H303.83a6.691,6.691,0,0,1-5.012-1.9c-2.393-2.426-2.34-6.354-2.34-6.393Zm9.758,4.414a0.674,0.674,0,1,1-.673-0.686h0A0.679,0.679,0,0,1,306.267,481.778Zm-3.028,14.635h-17.7c0.6-5.785,9.842-8.2,12.734-8.827v1.378c0,1.749,2.089,3.082,4.966,3.305v4.144Zm-3.452-7.472v-2.634a9.017,9.017,0,0,0,4.02.863h0.378a9.017,9.017,0,0,0,4.02-.863v2.657c0,0.732-1.642,1.787-4.209,1.787s-4.209-1.055-4.209-1.787v-0.023Zm4.966,7.5v-4.175c2.877-.2,4.967-1.54,4.967-3.3v-1.348c2.914,0.616,12.113,3.035,12.734,8.827h-17.7Z" transform="translate(-284 -459)"/>
</svg>
