<svg xmlns="http://www.w3.org/2000/svg" width="40" height="35" viewBox="0 0 40 35">
  <defs>
    <style>
      .cls-1 {
        fill: #fff;
        fill-rule: evenodd;
      }
    </style>
  </defs>
  <path id="Фигура_14" data-name="Фигура 14" class="cls-1" d="M736.841,497.5H727a5.686,5.686,0,0,0,.112-1.119V487.6a4.273,4.273,0,0,0-4.61-4.6H705.588A4.255,4.255,0,0,0,701,487.6v8.772a4.191,4.191,0,0,0,3.981,4.567v4a0.749,0.749,0,0,0,1.327.48l3.748-4.446h7.631a6.009,6.009,0,0,0-.045.683v7.789a3.873,3.873,0,0,0,4.161,4.168h1.447l3.448,4.124a0.75,0.75,0,0,0,1.327-.481v-3.643h8.816a3.873,3.873,0,0,0,4.16-4.168v-7.789A3.853,3.853,0,0,0,736.841,497.5ZM718.1,499.479h-8.426a0.745,0.745,0,0,0-.577.27l-2.616,3.132v-2.666a0.75,0.75,0,0,0-.75-0.751h-0.142a2.8,2.8,0,0,1-3.089-3.095V487.6a2.8,2.8,0,0,1,3.089-3.094H722.5a2.8,2.8,0,0,1,3.088,3.1v8.757a3.967,3.967,0,0,1-.134,1.127H721.81a3.98,3.98,0,0,0-3.681,1.968Zm21.41,9.959a2.414,2.414,0,0,1-2.661,2.666H727.26a0.75,0.75,0,0,0-.749.751v2.329l-2.347-2.809a0.75,0.75,0,0,0-.577-0.271H721.81a2.418,2.418,0,0,1-2.661-2.666v-7.789A2.417,2.417,0,0,1,721.3,499a2.377,2.377,0,0,1,.506,0h15.031a2.418,2.418,0,0,1,2.661,2.666Zm-23.936-21.706a3.273,3.273,0,0,0-1.432-.3,3.142,3.142,0,0,0-1.5.361,2.626,2.626,0,0,0-1,.909,2.033,2.033,0,0,0-.39,1.119,0.676,0.676,0,0,0,.218.48,0.745,0.745,0,0,0,.532.226,0.783,0.783,0,0,0,.749-0.639,2.5,2.5,0,0,1,.5-0.916,1.19,1.19,0,0,1,.907-0.315,1.217,1.217,0,0,1,.862.308,0.993,0.993,0,0,1,.338.751,0.859,0.859,0,0,1-.113.428,1.556,1.556,0,0,1-.27.36q-0.157.158-.517,0.473a8.932,8.932,0,0,0-.652.624,1.99,1.99,0,0,0-.532,1.427,0.753,0.753,0,0,0,.2.571,0.679,0.679,0,0,0,.487.187,0.622,0.622,0,0,0,.667-0.575,0.031,0.031,0,0,1,0-.01c0.037-.181.075-0.316,0.09-0.383a1.065,1.065,0,0,1,.09-0.218,1.2,1.2,0,0,1,.172-0.241,4.055,4.055,0,0,1,.307-0.308q0.69-.615.96-0.878a2.571,2.571,0,0,0,.457-0.624,1.726,1.726,0,0,0,.195-0.833,2.014,2.014,0,0,0-.337-1.127A2.328,2.328,0,0,0,715.573,487.732ZM714,494.3a0.829,0.829,0,0,0-.607.241,0.8,0.8,0,0,0-.248.593,0.752,0.752,0,0,0,.255.623,0.886,0.886,0,0,0,.6.226,0.858,0.858,0,0,0,.585-0.226,0.75,0.75,0,0,0,.254-0.616,0.824,0.824,0,0,0-.817-0.833h-0.015Zm15.862,6.475a0.943,0.943,0,0,0-.749.292,1.162,1.162,0,0,0-.278.819q0,0.384.06,1.27l0.2,3a2.883,2.883,0,0,0,.187.879,0.481,0.481,0,0,0,.473.285,0.5,0.5,0,0,0,.479-0.3,2.451,2.451,0,0,0,.188-0.857l0.322-3.079q0.021-.425,0-0.849a2.554,2.554,0,0,0-.187-1.089A0.751,0.751,0,0,0,729.861,500.771Zm-0.052,7.691a0.937,0.937,0,0,0-.945.931v0.015a0.881,0.881,0,0,0,.285.7,0.987,0.987,0,0,0,.675.248,0.967,0.967,0,0,0,.66-0.255,0.891,0.891,0,0,0,.285-0.7,0.9,0.9,0,0,0-.278-0.668A0.933,0.933,0,0,0,729.809,508.462Z" transform="translate(-701 -483)"/>
</svg>
