<svg xmlns="http://www.w3.org/2000/svg" width="39" height="40" viewBox="0 0 39 40">
  <defs>
    <style>
      .cls-1 {
        fill: #fff;
        fill-rule: evenodd;
      }
    </style>
  </defs>
  <path id="Фигура_15" data-name="Фигура 15" class="cls-1" d="M1136.53,458a19.615,19.615,0,0,0-13.99,33.276l-0.82,5.826a0.772,0.772,0,0,0,.63.891,0.79,0.79,0,0,0,.56-0.118l4.43-2.952A19.583,19.583,0,1,0,1136.53,458Zm0,37.665a17.959,17.959,0,0,1-8.85-2.318,0.768,0.768,0,0,0-.77,0l-3.47,2.264,0.67-4.489a0.763,0.763,0,0,0-.22-0.657,18.022,18.022,0,1,1,25.43-.178A17.919,17.919,0,0,1,1136.53,495.663Zm4.41-11.126h-0.64V473.118a0.775,0.775,0,0,0-.77-0.772h-6.64a0.768,0.768,0,0,0-.77.772V475.9a0.768,0.768,0,0,0,.77.772h0.64v7.865h-0.64a0.768,0.768,0,0,0-.77.773v2.781a0.768,0.768,0,0,0,.77.773h8.05a0.775,0.775,0,0,0,.77-0.773V485.31A0.775,0.775,0,0,0,1140.94,484.537Zm-0.77,2.782h-6.51v-1.236h0.64a0.768,0.768,0,0,0,.77-0.773V475.9a0.768,0.768,0,0,0-.77-0.773h-0.64v-1.236h5.09V485.31a0.768,0.768,0,0,0,.77.773h0.64Zm-3.64-16.047a3.238,3.238,0,1,0-3.23-3.237,3.228,3.228,0,0,0,3.23,3.237h0Zm0-4.922a1.213,1.213,0,1,1-.01-0.007h0.01v0.007Z" transform="translate(-1117 -458)"/>
</svg>
