<?xml version="1.0" encoding="UTF-8"?>
<svg width="164px" height="33px" viewBox="0 0 164 33" version="1.1" xmlns="http://www.w3.org/2000/svg" xmlns:xlink="http://www.w3.org/1999/xlink">
    <!-- Generator: Sketch 52.4 (67378) - http://www.bohemiancoding.com/sketch -->
    <title>login/logo_dark</title>
    <desc>Created with Sketch.</desc>
    <defs>
        <polygon id="path-1" points="5e-05 0.000102184874 31.50005 0.000102184874 31.50005 32.1882353 5e-05 32.1882353"></polygon>
        <linearGradient x1="5.04650644%" y1="4.84466672%" x2="68.1545308%" y2="72.2758163%" id="linearGradient-3">
            <stop stop-color="#fff" offset="0%"></stop>
            <stop stop-color="#fff" offset="100%"></stop>
        </linearGradient>
        <polygon id="path-4" points="0 32.1882353 163.8265 32.1882353 163.8265 0 0 0"></polygon>
    </defs>
    <g id="Page-1" stroke="none" stroke-width="1" fill="none" fill-rule="evenodd">
        <g id="设计规范及组件-Dark" transform="translate(-117.000000, -5105.000000)">
            <g id="8" transform="translate(117.000000, 5055.000000)">
                <g id="login/logo_dark" transform="translate(0.000000, 50.000000)">
                    <g id="logo_login">
                        <g id="Group-16">
                            <g id="Group-4">
                                <mask id="mask-2" fill="white">
                                    <use xlink:href="#path-1"></use>
                                </mask>
                                <g id="Clip-3"></g>
                                <path d="M9.35905,0.000102184874 L16.20655,0.0118534454 C24.69355,0.25914084 31.50005,7.36201143 31.50005,16.0942198 C31.50005,24.8259173 24.69355,31.9292988 16.20655,32.1883375 L5e-05,32.1883375 L5e-05,9.56307361 L9.35905,9.56307361 L9.35905,22.6253661 L15.93505,22.6202568 C19.37955,22.5201156 22.14105,19.6374803 22.14105,16.0942198 C22.14105,12.5504484 19.37955,9.66832403 15.93505,9.56307361 L9.35905,9.56307361 L9.35905,7.4641963 L9.35905,5.5983005 L9.35905,0.000102184874 Z M-8.23194052e-16,5.59819832 L-8.23194052e-16,-3.38474366e-16 L5.478,-3.38474366e-16 L5.478,5.59819832 L-8.23194052e-16,5.59819832 Z" id="Fill-2" fill="url(#linearGradient-3)" mask="url(#mask-2)"></path>
                            </g>
                            <path d="M42.58985,8.77890689 L42.58985,20.2445607 L46.54135,20.2445607 C48.56435,20.2445607 49.97485,19.391317 50.77235,17.682275 C51.20785,16.7447287 51.42685,15.6278481 51.42685,14.3326548 C51.42685,12.5449304 51.09935,11.1725876 50.44535,10.2151153 C49.79085,9.25764303 48.49035,8.77890689 46.54135,8.77890689 L42.58985,8.77890689 Z M50.43535,6.10881613 C51.87235,6.51397916 53.03585,7.25686319 53.92585,8.33797916 C54.63985,9.21217076 55.12635,10.1573808 55.38585,11.1741203 C55.64535,12.1918817 55.77535,13.1611052 55.77535,14.0823018 C55.77535,16.4182481 55.22785,18.3970582 54.13435,20.0182212 C52.65135,22.2034447 50.36135,23.295801 47.26535,23.295801 L38.43485,23.295801 L38.43485,5.72715563 L47.26535,5.72715563 C48.53535,5.74401613 49.59185,5.87072538 50.43535,6.10881613 Z" id="Fill-5" fill="#fff"></path>
                            <mask id="mask-5" fill="white">
                                <use xlink:href="#path-4"></use>
                            </mask>
                            <g id="Clip-8"></g>
                            <path d="M58.721,23.2961076 L62.736,23.2961076 L62.736,10.3043227 L58.721,10.3043227 L58.721,23.2961076 Z M58.7215,8.75468908 L62.7365,8.75468908 L62.7365,5.61965714 L58.7215,5.61965714 L58.7215,8.75468908 Z" id="Fill-7" fill="#fff" mask="url(#mask-5)"></path>
                            <path d="M75.4126,19.6070803 C76.0491,19.0067442 76.3676,18.0513156 76.3676,16.7402837 C76.3676,15.508956 76.0651,14.5714097 75.4611,13.927645 C74.8571,13.2838803 74.0476,12.961998 73.0326,12.961998 C71.6491,12.961998 70.6946,13.522482 70.1686,14.6424282 C69.8921,15.238677 69.7536,15.9738971 69.7536,16.8480887 C69.7536,17.602724 69.9016,18.2740787 70.1961,18.8621526 C70.7311,19.9585963 71.6906,20.5073291 73.0741,20.5073291 C73.9966,20.5073291 74.7761,20.2069055 75.4126,19.6070803 M74.0641,10.2924182 C75.0261,10.6342266 75.8031,11.2616417 76.3951,12.1756854 L76.3951,10.3041694 L80.2576,10.3041694 L80.2576,22.6281761 C80.2576,24.3050299 79.9291,25.5685459 79.2716,26.4182131 C78.1411,27.8799677 75.9736,28.6116114 72.7686,28.6116114 C70.8326,28.6116114 69.2536,28.2856417 68.0301,27.6342131 C66.8081,26.9827845 66.1316,26.0094736 66.0021,24.7142803 L70.3091,24.7142803 C70.4206,25.1112686 70.6011,25.3973862 70.8516,25.5726333 C71.2771,25.8822534 71.9951,26.0370635 73.0051,26.0370635 C74.4311,26.0370635 75.3851,25.6278131 75.8671,24.8098232 C76.1821,24.2851039 76.3396,23.4032484 76.3396,22.1637459 L76.3396,21.3294064 C75.9601,21.885803 75.5521,22.3022064 75.1171,22.5806602 C74.3291,23.0977156 73.3056,23.3552215 72.0461,23.3552215 C70.1011,23.3552215 68.5471,22.7697022 67.3841,21.5976417 C66.2216,20.4260921 65.6411,18.8381392 65.6411,16.8358266 C65.6411,14.9050434 66.2001,13.2818366 67.3196,11.9672282 C68.4391,10.6521089 70.0261,9.99454924 72.0796,9.99454924 C72.8381,9.99454924 73.4996,10.0941795 74.0641,10.2924182" id="Fill-9" fill="#fff" mask="url(#mask-5)"></path>
                            <path d="M84.0095,23.2961076 L88.0245,23.2961076 L88.0245,10.3043227 L84.0095,10.3043227 L84.0095,23.2961076 Z M84.0095,8.75468908 L88.0245,8.75468908 L88.0245,5.61965714 L84.0095,5.61965714 L84.0095,8.75468908 Z" id="Fill-10" fill="#fff" mask="url(#mask-5)"></path>
                            <polygon id="Fill-11" fill="#fff" mask="url(#mask-5)" points="92.1792 5.75178218 106.7822 5.75178218 106.7822 8.8382763 96.4312 8.8382763 96.4312 12.8786662 105.5042 12.8786662 105.5042 15.9299066 96.4312 15.9299066 96.4312 23.2959032 92.1792 23.2959032"></polygon>
                            <path d="M109.298,23.2961076 L113.313,23.2961076 L113.313,10.3043227 L109.298,10.3043227 L109.298,23.2961076 Z M109.298,8.75468908 L113.313,8.75468908 L113.313,5.61965714 L109.298,5.61965714 L109.298,8.75468908 Z" id="Fill-12" fill="#fff" mask="url(#mask-5)"></path>
                            <path d="M129.36035,11.0490971 C130.35235,11.7521291 130.84835,12.9185694 130.84835,14.5479072 L130.84835,23.2959543 L126.79085,23.2959543 L126.79085,15.3934871 C126.79085,14.7103812 126.68485,14.1861728 126.47385,13.8208618 C126.08735,13.1530837 125.35135,12.8194501 124.26685,12.8194501 C122.93335,12.8194501 122.01835,13.3078938 121.52185,14.2852921 C121.26485,14.8018366 121.13585,15.46144 121.13585,16.2635913 L121.13585,23.2959543 L117.17585,23.2959543 L117.17585,10.3281829 L121.01085,10.3281829 L121.01085,12.2232013 C121.51785,11.5559341 121.99785,11.0756652 122.44985,10.7813728 C123.26135,10.2566534 124.28985,9.99454924 125.53535,9.99454924 C127.09385,9.99454924 128.36935,10.3460652 129.36035,11.0490971" id="Fill-13" fill="#fff" mask="url(#mask-5)"></path>
                            <path d="M138.4746,13.5019429 C137.9151,13.9965176 137.5641,14.6668504 137.4201,15.5134521 L144.2421,15.5134521 C144.1701,14.6111597 143.8186,13.926521 143.1871,13.4600471 C142.5556,12.9930622 141.7731,12.7595697 140.8386,12.7595697 C139.8221,12.7595697 139.0341,13.0073681 138.4746,13.5019429 M144.3991,10.5677042 C145.4556,10.9738891 146.3281,11.6140773 147.0161,12.4898017 C147.6361,13.2612975 148.0386,14.156437 148.2231,15.1752202 C148.3291,15.7719798 148.3731,16.6318655 148.3531,17.7533445 L137.3226,17.7533445 C137.3841,19.0572235 137.9121,19.9702454 138.9066,20.4954756 C139.5111,20.8209345 140.2391,20.9839193 141.0896,20.9839193 C141.9916,20.9839193 142.7246,20.7851697 143.2886,20.3876706 C143.5961,20.1735933 143.8681,19.8757244 144.1041,19.4940639 L148.1466,19.4940639 C148.0401,20.2645378 147.5506,21.0477849 146.6781,21.8417613 C145.3216,23.1052773 143.4226,23.7367798 140.9806,23.7367798 C138.9651,23.7367798 137.1866,23.2038857 135.6461,22.1380975 C134.1051,21.0728202 133.3351,19.3392538 133.3351,16.9373983 C133.3351,14.6867765 134.0301,12.960363 135.4216,11.7602017 C136.8121,10.5590185 138.6171,9.95817143 140.8371,9.95817143 C142.1546,9.95817143 143.3421,10.1615193 144.3991,10.5677042" id="Fill-14" fill="#fff" mask="url(#mask-5)"></path>
                            <polygon id="Fill-15" fill="#fff" mask="url(#mask-5)" points="148.84815 23.2958521 154.01715 16.716679 149.07065 10.3280807 153.91965 10.3280807 156.44965 14.0910387 158.92165 10.3280807 163.63165 10.3280807 158.65765 16.6569008 163.82665 23.2958521 158.89415 23.2958521 156.28715 19.3898353 153.65565 23.2958521"></polygon>
                        </g>
                    </g>
                </g>
            </g>
        </g>
    </g>
</svg>