<svg xmlns="http://www.w3.org/2000/svg" width="180" height="42" viewBox="0 0 180 42">
  <defs>
    <style>
      .cls-1 {
        fill: #fff;
        fill-rule: evenodd;
      }
    </style>
  </defs>
  <path id="Фигура_12" data-name="Фигура 12" class="cls-1" d="M219.371,352.62h9.8v-1.4h-9.8v-7.491h11.151v-1.4H217.708v19.939h12.884v-1.4H219.371V352.62Zm30.134-10.284h-2.026l-5.744,8.518-5.715-8.518h-2.027l6.778,9.832-6.987,10.107h2.026l5.953-8.792,5.967,8.792h2l-6.987-10.107Zm18.912,18.4a5.772,5.772,0,0,1-.223-1.671v-1.876a5.146,5.146,0,0,0-.832-3.006,4.44,4.44,0,0,0-2.718-1.664,5.306,5.306,0,0,0,2.642-1.828,4.625,4.625,0,0,0,.936-2.842,4.952,4.952,0,0,0-1.747-4.1,7.841,7.841,0,0,0-5.017-1.4h-6.889v19.926h1.663v-9.011h5.7a4.949,4.949,0,0,1,3.375,1.061,3.656,3.656,0,0,1,1.209,2.9v1.822a8.032,8.032,0,0,0,.21,1.849,2.712,2.712,0,0,0,.726,1.383h1.705v-0.329A2.585,2.585,0,0,1,268.417,360.741Zm-7.168-8.874h-5.017v-8.121h5.226a5.843,5.843,0,0,1,3.822,1.061,3.741,3.741,0,0,1,1.265,3.034,3.668,3.668,0,0,1-1.272,2.937A6.115,6.115,0,0,1,261.249,351.867Zm19.136-9.531-7.728,19.939h1.733l2.1-5.56h9.321l2.1,5.56h1.733l-7.672-19.939h-1.579Zm-3.34,12.913,4.081-10.791h0.083l4.053,10.791h-8.217Zm13.295-11.517h7v18.543h1.677V343.732h7v-1.4H290.34v1.4Zm22.085,8.888h9.8v-1.4h-9.8v-7.491h11.151v-1.4H310.762v19.939h12.884v-1.4H312.425V352.62Zm27.863,1.054a12.84,12.84,0,0,0-5-2.218,12.026,12.026,0,0,1-4.388-1.773,3.086,3.086,0,0,1-1.271-2.513,3.245,3.245,0,0,1,1.376-2.657,6.1,6.1,0,0,1,3.822-1.068,5.683,5.683,0,0,1,3.92,1.287,4.2,4.2,0,0,1,1.446,3.287h1.537l0.042-.082a5.207,5.207,0,0,0-1.872-4.177,7.361,7.361,0,0,0-5.073-1.712,8.024,8.024,0,0,0-4.94,1.438,4.449,4.449,0,0,0-1.921,3.725,4.234,4.234,0,0,0,1.719,3.547,13.856,13.856,0,0,0,5.058,2.136,11.582,11.582,0,0,1,4.332,1.825,3.3,3.3,0,0,1,1.244,2.659,3.2,3.2,0,0,1-1.488,2.748,6.685,6.685,0,0,1-3.906,1.039,7.668,7.668,0,0,1-4.178-1.119,3.785,3.785,0,0,1-1.775-3.441h-1.537l-0.028.082a4.764,4.764,0,0,0,2.2,4.376,9.431,9.431,0,0,0,5.317,1.5,8.586,8.586,0,0,0,5.08-1.41A4.422,4.422,0,0,0,342,357.358,4.524,4.524,0,0,0,340.288,353.674ZM185.27,331a21.848,21.848,0,0,0-6.372.944,1.133,1.133,0,0,0-.763,1.422,1.164,1.164,0,0,0,1.451.747,19.5,19.5,0,0,1,5.684-.842,18.732,18.732,0,1,1,0,37.457,19.488,19.488,0,0,1-5.514-.79,1.162,1.162,0,0,0-1.443.761,1.131,1.131,0,0,0,.776,1.414,21.838,21.838,0,0,0,6.181.887A21,21,0,1,0,185.27,331Zm6.425,21.116v-0.232l-4.517-4.427H162.459a22.712,22.712,0,0,0,0,9.086h24.719ZM175.088,335.61h-6.073a22.915,22.915,0,0,0-5.8,9.086h21.15ZM163.21,359.3a22.922,22.922,0,0,0,5.8,9.086h6.073l9.272-9.086H163.21Z" transform="translate(-162 -331)"/>
</svg>
