<svg xmlns="http://www.w3.org/2000/svg" width="87" height="38" viewBox="0 0 87 38">
    <g fill="#fff" fill-rule="nonzero">
        <path d="M0 0h4.796v24.954H0z"/>
        <path d="M0 29.75h4.796v7.214H0z"/>
        <path d="M86.712 12.007h-5.715l-5.245 8.074-5.245-8.074H64.79l8.102 12.477-8.102 12.48h5.718l5.245-8.074 5.245 8.074h5.715l-8.102-12.48zM23.639 12.01h-9.007v24.954h9.007c6.89-.002 12.475-5.587 12.477-12.477 0-6.891-5.586-12.477-12.477-12.477zm7.371 12.477a7.681 7.681 0 0 1-7.681 7.681h-3.901V16.802h3.901a7.681 7.681 0 0 1 7.681 7.685z"/>
        <path d="M80.997 7.214h5.715L82.031 0h-5.719zM70.507 7.214L75.192 0h-5.719L64.79 7.214zM23.639 7.214c4.852 0 9.264-2.814 11.31-7.214H28.92a7.663 7.663 0 0 1-5.592 2.418h-3.901V0h-4.796v7.214h9.007z"/>
        <path d="M53.915 0H47.03l-8.193 24.954h5.047l1.576-4.795h10.025l1.576 4.795h5.046L53.915 0zm-6.882 15.363l3.433-10.477 3.44 10.477h-6.873z"/>
        <path d="M50.472 34.636l.765 2.328h5.047l-2.369-7.214H47.03l-2.368 7.214h5.047z"/>
    </g>
</svg>
